<svg width="14" height="14" viewBox="0 0 14 14" fill="none" xmlns="http://www.w3.org/2000/svg">
<path d="M9.89817 2.98426V1.92742C9.89817 1.83582 9.79289 1.78523 9.7218 1.84129L3.55852 6.65516C3.50615 6.69588 3.46378 6.74802 3.43463 6.80762C3.40549 6.86721 3.39034 6.93267 3.39034 6.999C3.39034 7.06534 3.40549 7.1308 3.43463 7.19039C3.46378 7.24998 3.50615 7.30213 3.55852 7.34285L9.7218 12.1567C9.79426 12.2128 9.89817 12.1622 9.89817 12.0706V11.0137C9.89817 10.9468 9.86672 10.8825 9.81477 10.8415L4.89289 6.99969L9.81477 3.15652C9.86672 3.11551 9.89817 3.05125 9.89817 2.98426V2.98426Z" fill="#9292A3"/>
</svg>
